HIERARCHY
ROOT Hips
{
	OFFSET -13.091600 -28.302996 44.698402
	CHANNELS 6 Xposition Yposition Zposition Zrotation Xrotation Yrotation
	JOINT Chest
	{
		OFFSET -0.673000 0.623899 5.369202
		CHANNELS 6 Xposition Yposition Zposition Zrotation Xrotation Yrotation
		JOINT Chest2
		{
			OFFSET 0.000000 0.000000 4.415001
			CHANNELS 6 Xposition Yposition Zposition Zrotation Xrotation Yrotation
			JOINT Neck
			{
				OFFSET 0.000000 0.000002 10.273300
				CHANNELS 6 Xposition Yposition Zposition Zrotation Xrotation Yrotation
				JOINT Head
				{
					OFFSET 0.000000 0.000000 2.173897
					CHANNELS 6 Xposition Yposition Zposition Zrotation Xrotation Yrotation
					End Site
					{
						OFFSET 0.000000 0.000000 9.961800
					}
				}
			}
			JOINT LeftCollar
			{
				OFFSET 2.359900 -0.565201 5.928101
				CHANNELS 6 Xposition Yposition Zposition Zrotation Xrotation Yrotation
				JOINT LeftShoulder
				{
					OFFSET 5.443700 0.000000 0.000000
					CHANNELS 6 Xposition Yposition Zposition Zrotation Xrotation Yrotation
					JOINT LeftElbow
					{
						OFFSET 0.000000 0.000000 -10.615799
						CHANNELS 6 Xposition Yposition Zposition Zrotation Xrotation Yrotation
						JOINT LeftWrist
						{
							OFFSET 0.000000 -0.000002 -13.110302
							CHANNELS 6 Xposition Yposition Zposition Zrotation Xrotation Yrotation
							End Site
							{
								OFFSET 0.000000 0.000000 -2.173901
							}
						}
					}
				}
			}
			JOINT RightCollar
			{
				OFFSET -2.636600 -1.718800 6.889698
				CHANNELS 6 Xposition Yposition Zposition Zrotation Xrotation Yrotation
				JOINT RightShoulder
				{
					OFFSET -4.139101 0.000000 0.000000
					CHANNELS 6 Xposition Yposition Zposition Zrotation Xrotation Yrotation
					JOINT RightElbow
					{
						OFFSET 0.000000 0.000000 -10.471802
						CHANNELS 6 Xposition Yposition Zposition Zrotation Xrotation Yrotation
						JOINT RightWrist
						{
							OFFSET 0.000000 0.000000 -12.281898
							CHANNELS 6 Xposition Yposition Zposition Zrotation Xrotation Yrotation
							End Site
							{
								OFFSET 0.000000 -0.000002 -2.173901
							}
						}
					}
				}
			}
		}
	}
	JOINT LeftHip
	{
		OFFSET 2.273400 0.176701 -2.518002
		CHANNELS 6 Xposition Yposition Zposition Zrotation Xrotation Yrotation
		JOINT LeftKnee
		{
			OFFSET 0.000000 -0.000002 -20.456402
			CHANNELS 6 Xposition Yposition Zposition Zrotation Xrotation Yrotation
			JOINT LeftAnkle
			{
				OFFSET 0.000000 -0.000002 -16.635300
				CHANNELS 6 Xposition Yposition Zposition Zrotation Xrotation Yrotation
				End Site
				{
					OFFSET 0.000000 -8.812399 0.000001
				}
			}
		}
	}
	JOINT RightHip
	{
		OFFSET -1.914800 0.018101 -2.699299
		CHANNELS 6 Xposition Yposition Zposition Zrotation Xrotation Yrotation
		JOINT RightKnee
		{
			OFFSET 0.000000 -0.000002 -20.148901
			CHANNELS 6 Xposition Yposition Zposition Zrotation Xrotation Yrotation
			JOINT RightAnkle
			{
				OFFSET 0.000000 -0.000002 -16.838301
				CHANNELS 6 Xposition Yposition Zposition Zrotation Xrotation Yrotation
				End Site
				{
					OFFSET 0.000000 -8.328398 0.000001
				}
			}
		}
	}
}
MOTION
Frames: 4
Frame Time: 0.041667
-6.983204 33.852615 37.393105 1468.194405 26.838620 12.530301 -0.673002 0.623895 5.369206 -24.028756 10.214287 -11.368204 0.000001 0.000000 4.415011 25.875005 -6.147760 0.583935 -0.000004 0.000003 10.273312 -50.448324 -9.271131 -0.090893 -0.000002 0.000004 2.173901 -4.025578 -5.594827 -6.923561 2.359899 -0.565200 5.928109 8.807015 -2.146791 -22.788238 5.443696 0.000002 0.000005 159.597533 215.946211 -287.350976 -0.000003 0.000000 -10.615792 611.097244 -159.518262 188.365143 -0.000006 -0.000007 -13.110299 -1038.301971 -364.339257 331.991399 -2.636604 -1.718800 6.889712 176.161534 -182.291465 159.178911 -4.139095 0.000002 0.000001 384.885832 -408.242620 469.612826 -0.000002 -0.000004 -10.471794 -11.839968 -16.085966 -366.567647 0.000003 -0.000004 -12.281897 395.054235 9.788850 68.818404 2.273396 0.176706 -2.518003 -63.061204 -137.771363 -96.864636 0.000002 -0.000000 -20.456400 86.167795 155.612787 -46.020568 -0.000010 -0.000004 -16.635294 12.228584 58.016624 74.386538 -1.914802 0.018106 -2.699299 105.448197 214.919374 115.343139 0.000002 -0.000006 -20.148905 96.992204 60.781027 -68.323851 0.000000 -0.000004 -16.838299 -31.918666 4.680851 -4.540317
-7.002601 33.854507 37.367599 1468.061954 26.948267 12.379336 -0.673005 0.623901 5.369208 -23.978468 9.979928 -11.175427 0.000000 -0.000006 4.415003 25.801533 -6.153746 0.577398 -0.000003 -0.000002 10.273298 -50.615834 -9.260584 -0.187845 -0.000002 -0.000004 2.173902 -3.936204 -5.557739 -6.896497 2.359900 -0.565202 5.928104 8.923135 -2.264378 -22.949342 5.443697 -0.000000 -0.000003 159.485409 215.879754 -287.368817 -0.000003 -0.000001 -10.615788 610.819719 -159.808477 188.075870 -0.000001 -0.000005 -13.110297 -1038.157171 -364.375511 332.043936 -2.636607 -1.718804 6.889708 176.189019 -182.325930 159.130102 -4.139100 -0.000001 0.000005 384.743982 -408.165766 469.480866 0.000001 -0.000001 -10.471797 -11.709523 -15.897762 -366.464074 -0.000002 -0.000003 -12.281900 394.843155 9.817707 69.337745 2.273397 0.176701 -2.518006 -62.784267 -137.920111 -96.722637 -0.000003 -0.000003 -20.456394 86.189372 155.632622 -45.898318 -0.000010 -0.000003 -16.635294 12.188216 58.017013 74.291401 -1.914798 0.018107 -2.699303 105.348640 214.987116 115.010769 0.000000 -0.000002 -20.148907 97.305648 60.853051 -68.304152 -0.000002 -0.000004 -16.838301 -31.891714 4.812327 -4.648513
-7.021199 33.856705 37.344105 1467.910051 27.062330 12.175905 -0.673010 0.623891 5.369210 -23.919077 9.717064 -10.929423 0.000002 0.000001 4.415000 25.717790 -6.165982 0.568735 -0.000001 0.000004 10.273291 -50.712908 -9.274812 -0.288257 0.000001 -0.000005 2.173899 -3.886606 -5.554420 -6.875734 2.359900 -0.565199 5.928092 9.035344 -2.368756 -23.124435 5.443689 -0.000002 -0.000001 159.378776 215.815482 -287.364609 -0.000004 0.000000 -10.615793 610.639184 -160.125562 187.780437 -0.000005 -0.000005 -13.110299 -1038.081001 -364.423596 332.068716 -2.636601 -1.718800 6.889696 176.261706 -182.418425 159.078808 -4.139096 0.000005 0.000001 384.617323 -408.093448 469.403221 -0.000004 -0.000003 -10.471792 -11.519561 -15.666688 -366.313482 0.000002 -0.000008 -12.281897 394.878480 9.854862 69.179626 2.273396 0.176696 -2.518003 -62.461008 -138.128063 -96.567448 -0.000004 -0.000005 -20.456398 86.164961 155.673672 -45.757117 -0.000008 -0.000003 -16.635290 12.131230 58.020784 74.217676 -1.914803 0.018098 -2.699295 105.268392 215.096509 114.674505 0.000002 -0.000007 -20.148907 97.575447 60.971418 -68.202342 -0.000001 -0.000002 -16.838301 -31.811586 4.984116 -4.758153
-7.039200 33.862015 37.323307 1467.749077 27.202683 11.923729 -0.673005 0.623909 5.369207 -23.852228 9.423744 -10.679172 0.000002 0.000005 4.415007 25.620427 -6.195841 0.558167 -0.000001 0.000002 10.273303 -50.755030 -9.338217 -0.362183 -0.000001 -0.000002 2.173902 -3.871050 -5.603249 -6.848146 2.359899 -0.565203 5.928105 9.153480 -2.423192 -23.232970 5.443694 -0.000007 -0.000009 159.264275 215.761974 -287.399634 -0.000003 0.000000 -10.615794 610.711693 -160.498449 187.595899 -0.000008 -0.000002 -13.110294 -1038.227331 -364.486871 332.004813 -2.636600 -1.718804 6.889703 176.384731 -182.587445 158.966793 -4.139096 0.000005 0.000002 384.558638 -407.939742 469.490319 0.000003 -0.000007 -10.471803 -11.359837 -15.409901 -366.138875 0.000000 -0.000002 -12.281900 394.860831 9.924205 69.030912 2.273395 0.176714 -2.518006 -62.108850 -138.337695 -96.374598 -0.000005 -0.000004 -20.456396 86.154934 155.720855 -45.613185 -0.000009 -0.000003 -16.635294 12.065883 58.029123 74.152024 -1.914799 0.018116 -2.699304 105.124849 215.202595 114.275765 0.000003 -0.000001 -20.148899 98.056716 61.042965 -68.221152 0.000000 -0.000001 -16.838305 -31.794783 5.126254 -4.865985
